<?xml version="1.0" standalone="no"?>
<!DOCTYPE svg PUBLIC "-//W3C//DTD SVG 20010904//EN"
 "http://www.w3.org/TR/2001/REC-SVG-20010904/DTD/svg10.dtd">
<svg version="1.0" xmlns="http://www.w3.org/2000/svg"
 width="512.000000pt" height="512.000000pt" viewBox="0 0 512.000000 512.000000"
 preserveAspectRatio="xMidYMid meet">

<g transform="translate(0.000000,512.000000) scale(0.100000,-0.100000)"
fill="#000000" stroke="none">
<path d="M0 2560 l0 -2560 2560 0 2560 0 0 2560 0 2560 -2560 0 -2560 0 0
-2560z m2013 1890 c138 -26 308 -152 378 -281 58 -105 99 -236 99 -316 0 -62
-3 -73 -35 -118 -19 -28 -48 -68 -63 -90 -66 -96 -145 -144 -216 -131 -51 10
-60 33 -62 171 -5 209 -22 264 -106 340 -37 33 -60 46 -94 51 -124 18 -229
-23 -271 -106 l-23 -44 0 -1103 c0 -915 2 -1109 14 -1136 43 -100 200 -158
307 -113 56 24 120 80 314 275 99 100 312 313 474 474 559 554 716 714 746
757 28 40 30 50 30 129 0 76 -3 92 -28 133 -33 57 -74 89 -144 113 -51 18 -55
18 -110 1 -33 -10 -81 -37 -110 -60 -28 -22 -264 -254 -525 -515 -260 -260
-492 -489 -515 -508 -70 -58 -136 -44 -169 34 -18 42 -19 298 -1 330 13 23
509 525 813 822 145 143 191 181 252 213 72 38 79 39 226 50 264 20 332 1 484
-135 87 -79 118 -116 142 -173 12 -27 27 -56 35 -64 17 -19 45 -182 45 -263 0
-95 -17 -167 -60 -260 -38 -81 -49 -94 -308 -353 -278 -279 -318 -325 -306
-346 14 -23 197 -219 344 -367 235 -238 248 -256 306 -425 42 -122 27 -343
-29 -433 -13 -21 -27 -49 -30 -63 -3 -14 -39 -58 -78 -98 -59 -59 -92 -82
-173 -122 -56 -28 -112 -50 -124 -50 -12 0 -41 -8 -64 -17 -75 -31 -174 -24
-309 21 -127 42 -150 58 -295 201 -193 190 -231 249 -204 320 27 73 169 175
223 161 27 -6 58 -34 197 -170 175 -172 303 -208 419 -116 79 63 96 99 96 205
0 76 -4 96 -23 131 -13 22 -112 128 -220 235 -282 278 -314 306 -355 295 -12
-3 -157 -141 -322 -307 -168 -168 -317 -310 -338 -321 -21 -10 -65 -39 -97
-62 -50 -37 -71 -46 -148 -60 -166 -30 -300 -16 -422 44 -150 75 -225 143
-281 255 -74 147 -71 93 -76 1310 -4 995 -3 1098 13 1180 15 83 38 153 55 165
3 3 15 25 26 50 48 107 208 224 348 255 73 16 271 19 348 5z"/>
<path d="M1730 4404 c-208 -44 -362 -178 -429 -373 l-22 -64 1 -1136 c0 -627
5 -1152 10 -1171 18 -73 31 -109 40 -115 6 -4 10 -13 10 -22 0 -21 68 -104
121 -149 55 -46 169 -101 238 -114 29 -5 57 -13 63 -16 16 -10 167 -6 202 6
17 5 50 15 73 20 95 24 203 114 526 440 170 171 318 316 330 321 13 6 32 7 44
2 22 -8 186 -167 451 -436 163 -166 176 -191 176 -317 0 -78 -3 -102 -21 -136
-47 -89 -149 -164 -233 -171 -118 -11 -223 34 -318 135 -116 124 -179 183
-200 189 -27 6 -60 -15 -134 -86 -30 -29 -48 -55 -48 -69 0 -16 42 -66 142
-167 130 -133 149 -148 232 -189 50 -25 114 -49 141 -55 28 -5 71 -14 96 -20
35 -7 60 -6 100 4 30 8 65 15 79 15 14 0 66 20 116 45 168 82 269 213 310 399
11 53 15 99 11 140 -6 58 -12 82 -43 169 -41 111 -50 123 -259 337 -115 118
-246 249 -289 290 -44 41 -92 87 -107 101 -34 32 -29 69 15 100 17 12 157 149
311 303 295 296 312 318 352 450 31 100 18 281 -27 376 -4 8 -16 33 -26 55
-62 133 -203 246 -346 276 -37 8 -90 8 -195 -1 -138 -11 -205 -26 -270 -63
-43 -24 -975 -952 -989 -984 -10 -23 -14 -76 -14 -177 0 -155 3 -164 50 -140
14 7 212 200 440 429 577 580 635 634 725 680 66 34 80 37 128 32 96 -10 225
-113 262 -210 24 -62 17 -182 -15 -251 -24 -54 -116 -152 -414 -445 -104 -102
-381 -378 -615 -612 -234 -234 -439 -435 -456 -446 -57 -39 -110 -66 -165 -83
-50 -16 -57 -16 -100 -1 -151 54 -226 125 -249 238 -9 43 -11 326 -9 1123 l3
1065 34 63 c31 56 94 122 118 122 5 0 14 5 21 12 15 15 119 48 151 48 13 0 51
-10 83 -22 81 -29 147 -91 187 -173 l31 -66 0 -174 c0 -170 1 -175 21 -175 19
0 92 61 161 135 40 43 78 123 78 164 0 45 -25 168 -38 184 -5 7 -17 36 -27 64
-35 97 -161 216 -290 270 -88 37 -233 49 -335 27z"/>
</g>
</svg>
